<svg xmlns="http://www.w3.org/2000/svg" viewBox="0 0 48 48" fill="none">
  <g clip-path="url(#clip0)">
    <path d="M42.17 20.17L27.83 5.83C29.14 7.14 28.4 10.19 26.2 13.77C24.85 15.96 22.96 18.34 20.65 20.65C18.34 22.96 15.96 24.85 13.77 26.2C10.19 28.4 7.14 29.14 5.83 27.83L20.17 42.17C21.48 43.48 24.54 42.75 28.11 40.55C30.3 39.2 32.69 37.31 35 35C37.31 32.69 39.2 30.3 40.55 28.11C42.75 24.54 43.48 21.48 42.17 20.17Z" fill="#ec4913"/>
    <path fill-rule="evenodd" clip-rule="evenodd" d="M7.24 26.41C7.31 26.44 7.64 26.56 8.53 26.37C9.59 26.14 11.03 25.53 12.72 24.5C14.76 23.24 17.03 21.45 19.24 19.24C21.45 17.03 23.24 14.76 24.5 12.72C25.53 11.03 26.14 9.59 26.37 8.53C26.56 7.64 26.44 7.31 26.41 7.24C26.35 7.21 26.14 7.15 25.67 7.19C24.97 7.26 24 7.55 22.77 8.14C20.34 9.32 17.34 11.49 14.41 14.41C11.49 17.34 9.32 20.34 8.14 22.77C7.55 24 7.26 24.97 7.19 25.67C7.15 26.14 7.21 26.35 7.24 26.41ZM29.9 10.73C29.45 12.03 28.76 13.42 27.9 14.81C26.47 17.15 24.47 19.66 22.07 22.07C19.66 24.47 17.15 26.47 14.81 27.9C13.42 28.76 12.03 29.45 10.73 29.9L21.58 40.75C21.6 40.76 21.9 40.93 22.87 40.72C23.94 40.49 25.38 39.88 27.07 38.84C29.11 37.59 31.37 35.8 33.59 33.59C35.8 31.37 37.59 29.11 38.84 27.07C39.88 25.38 40.49 23.94 40.72 22.87C40.93 21.9 40.76 21.6 40.75 21.58L29.9 10.73ZM29.24 4.41L43.59 18.76C44.98 20.15 44.97 22.12 44.63 23.71C44.27 25.39 43.42 27.27 42.25 29.16C40.81 31.5 38.82 34.01 36.41 36.41C34.01 38.82 31.5 40.81 29.16 42.25C27.27 43.42 25.39 44.27 23.71 44.63C22.12 44.97 20.15 44.98 18.76 43.59L4.41 29.24C3.29 28.12 3.08 26.6 3.21 25.28C3.34 23.94 3.84 22.49 4.54 21.03C5.96 18.09 8.43 14.74 11.59 11.59C14.74 8.43 18.09 5.96 21.03 4.54C22.49 3.84 23.94 3.34 25.28 3.21C26.6 3.08 28.12 3.29 29.24 4.41Z" fill="#ec4913"/>
  </g>
  <defs>
    <clipPath id="clip0">
      <rect width="48" height="48" fill="white"/>
    </clipPath>
  </defs>
</svg>
